<svg width="429" height="429" viewBox="0 0 429 429" fill="none" xmlns="http://www.w3.org/2000/svg">
<path d="M225.931 428.695C192.128 430.499 158.379 424.277 127.442 410.539C96.5053 396.8 69.2591 375.935 47.9313 349.648C26.6034 323.362 11.7996 292.401 4.73006 259.298C-2.33946 226.194 -1.47391 191.887 7.25594 159.181L148.182 196.798C145.388 207.264 145.111 218.242 147.374 228.835C149.636 239.428 154.373 249.336 161.198 257.747C168.023 266.159 176.742 272.836 186.642 277.232C196.541 281.629 207.341 283.62 218.158 283.042L225.931 428.695Z" fill="#DC4F1D"/>
<path d="M7.30891 158.983C13.1346 137.242 22.3461 116.552 34.6052 97.6749L156.934 177.116C153.011 183.157 150.063 189.777 148.199 196.735L7.30891 158.983Z" fill="#C88C21"/>
<path d="M33.6761 99.1181C52.1164 70.2189 77.2147 46.1605 106.868 28.9588C136.521 11.757 169.865 1.91316 204.106 0.251982L211.174 145.941C200.217 146.472 189.547 149.622 180.058 155.127C170.569 160.631 162.537 168.33 156.636 177.578L33.6761 99.1181Z" fill="#058789"/>
<path d="M203.773 0.268403C231.906 -1.14031 260.041 3.00603 286.572 12.4707C313.103 21.9354 337.51 36.533 358.399 55.4301C379.289 74.3272 396.251 97.1538 408.319 122.606C420.387 148.059 427.323 175.64 428.732 203.773L283.054 211.067C282.603 202.065 280.384 193.239 276.522 185.094C272.66 176.949 267.232 169.645 260.548 163.598C253.863 157.551 246.053 152.879 237.563 149.851C229.073 146.822 220.07 145.495 211.067 145.946L203.773 0.268403Z" fill="#85C85C"/>
<path d="M428.681 202.815C430.216 230.942 426.195 259.095 416.849 285.668C407.504 312.241 393.015 336.713 374.212 357.687C355.408 378.66 332.658 395.725 307.259 407.906C281.861 420.088 254.312 427.147 226.185 428.681L218.239 283.038C227.24 282.547 236.055 280.288 244.183 276.39C252.31 272.492 259.591 267.031 265.608 260.32C271.625 253.608 276.261 245.777 279.252 237.274C282.243 228.771 283.529 219.761 283.038 210.761L428.681 202.815Z" fill="#5E5CC8"/>
<g filter="url(#filter0_d_362_14841)">
<path d="M90.7341 306.288C89.6301 306.288 88.6301 306.08 87.7341 305.664C86.8381 305.248 86.1261 304.64 85.5981 303.84C85.0701 303.024 84.7821 302.04 84.7341 300.888H87.2781C87.3261 301.768 87.6461 302.496 88.2381 303.072C88.8461 303.648 89.6781 303.936 90.7341 303.936C91.7741 303.936 92.5901 303.68 93.1821 303.168C93.7741 302.656 94.0701 301.952 94.0701 301.056C94.0701 300.064 93.7101 299.336 92.9901 298.872C92.2701 298.408 91.3901 298.176 90.3501 298.176H88.8621V295.92H90.1341C91.0781 295.92 91.8541 295.728 92.4621 295.344C93.0701 294.96 93.3741 294.36 93.3741 293.544C93.3741 292.84 93.1421 292.288 92.6781 291.888C92.2141 291.472 91.5581 291.264 90.7101 291.264C89.8461 291.264 89.1581 291.496 88.6461 291.96C88.1341 292.424 87.8461 293.016 87.7821 293.736H85.2621C85.3101 292.776 85.5661 291.936 86.0301 291.216C86.4941 290.496 87.1261 289.936 87.9261 289.536C88.7261 289.12 89.6541 288.912 90.7101 288.912C91.8621 288.912 92.8221 289.112 93.5901 289.512C94.3581 289.896 94.9341 290.416 95.3181 291.072C95.7021 291.728 95.8941 292.464 95.8941 293.28C95.8941 294.112 95.6461 294.832 95.1501 295.44C94.6701 296.032 94.0861 296.464 93.3981 296.736V296.88C94.3261 297.136 95.0861 297.616 95.6781 298.32C96.2861 299.008 96.5901 299.936 96.5901 301.104C96.5901 302.048 96.3581 302.92 95.8941 303.72C95.4461 304.504 94.7821 305.128 93.9021 305.592C93.0381 306.056 91.9821 306.288 90.7341 306.288ZM105.005 306.288C103.709 306.288 102.573 305.936 101.597 305.232C100.637 304.528 99.8927 303.528 99.3647 302.232C98.8367 300.92 98.5727 299.376 98.5727 297.6C98.5727 295.808 98.8367 294.264 99.3647 292.968C99.8927 291.672 100.637 290.672 101.597 289.968C102.573 289.264 103.709 288.912 105.005 288.912C106.317 288.912 107.453 289.264 108.413 289.968C109.373 290.672 110.117 291.672 110.645 292.968C111.173 294.264 111.437 295.808 111.437 297.6C111.437 299.376 111.173 300.92 110.645 302.232C110.117 303.528 109.373 304.528 108.413 305.232C107.453 305.936 106.317 306.288 105.005 306.288ZM101.165 297.6C101.165 298.496 101.245 299.312 101.405 300.048C101.565 300.784 101.789 301.424 102.077 301.968L106.277 291.576C105.877 291.384 105.453 291.288 105.005 291.288C103.885 291.288 102.965 291.856 102.245 292.992C101.525 294.112 101.165 295.648 101.165 297.6ZM105.005 303.936C105.757 303.936 106.421 303.68 106.997 303.168C107.573 302.656 108.021 301.928 108.341 300.984C108.677 300.024 108.845 298.896 108.845 297.6C108.845 296.704 108.765 295.888 108.605 295.152C108.445 294.416 108.221 293.784 107.933 293.256L103.733 303.648C104.133 303.84 104.557 303.936 105.005 303.936ZM116.179 296.352C115.139 296.352 114.283 296.016 113.611 295.344C112.939 294.672 112.603 293.768 112.603 292.632C112.603 291.496 112.939 290.592 113.611 289.92C114.283 289.248 115.139 288.912 116.179 288.912C117.219 288.912 118.075 289.248 118.747 289.92C119.419 290.592 119.755 291.496 119.755 292.632C119.755 293.768 119.419 294.672 118.747 295.344C118.075 296.016 117.219 296.352 116.179 296.352ZM116.179 294.672C116.643 294.672 117.051 294.496 117.403 294.144C117.755 293.776 117.931 293.272 117.931 292.632C117.931 291.976 117.755 291.472 117.403 291.12C117.051 290.768 116.643 290.592 116.179 290.592C115.715 290.592 115.307 290.768 114.955 291.12C114.603 291.472 114.427 291.976 114.427 292.632C114.427 293.272 114.603 293.776 114.955 294.144C115.307 294.496 115.715 294.672 116.179 294.672ZM113.899 304.584L112.579 303.288L124.891 290.616L126.211 291.912L113.899 304.584ZM122.611 306.288C121.571 306.288 120.715 305.952 120.043 305.28C119.371 304.608 119.035 303.704 119.035 302.568C119.035 301.432 119.371 300.528 120.043 299.856C120.715 299.184 121.571 298.848 122.611 298.848C123.651 298.848 124.507 299.184 125.179 299.856C125.851 300.528 126.187 301.432 126.187 302.568C126.187 303.704 125.851 304.608 125.179 305.28C124.507 305.952 123.651 306.288 122.611 306.288ZM122.611 304.608C123.075 304.608 123.483 304.432 123.835 304.08C124.187 303.712 124.363 303.208 124.363 302.568C124.363 301.912 124.187 301.408 123.835 301.056C123.483 300.704 123.075 300.528 122.611 300.528C122.147 300.528 121.739 300.704 121.387 301.056C121.035 301.408 120.859 301.912 120.859 302.568C120.859 303.208 121.035 303.712 121.387 304.08C121.739 304.432 122.147 304.608 122.611 304.608Z" fill="white"/>
</g>
<g filter="url(#filter1_d_362_14841)">
<path d="M67.2854 161.288C66.1174 161.288 65.1014 161.072 64.2374 160.64C63.3734 160.208 62.6934 159.616 62.1974 158.864C61.7174 158.112 61.4374 157.264 61.3574 156.32H63.9494C64.1094 157.104 64.4774 157.736 65.0534 158.216C65.6454 158.696 66.3974 158.936 67.3094 158.936C68.3814 158.936 69.2294 158.6 69.8534 157.928C70.4774 157.24 70.7894 156.36 70.7894 155.288C70.7894 154.152 70.4694 153.272 69.8294 152.648C69.1894 152.024 68.3734 151.712 67.3814 151.712C66.5814 151.712 65.9014 151.896 65.3414 152.264C64.7814 152.632 64.3414 153.096 64.0214 153.656H61.5734L63.0134 144.2H72.1574V146.552H64.9814L64.1654 150.848H64.3334C64.6694 150.464 65.1174 150.144 65.6774 149.888C66.2534 149.632 66.9334 149.504 67.7174 149.504C68.8694 149.504 69.8534 149.752 70.6694 150.248C71.5014 150.744 72.1414 151.432 72.5894 152.312C73.0374 153.176 73.2614 154.16 73.2614 155.264C73.2614 156.384 73.0134 157.4 72.5174 158.312C72.0374 159.224 71.3494 159.952 70.4534 160.496C69.5574 161.024 68.5014 161.288 67.2854 161.288ZM78.484 151.352C77.444 151.352 76.588 151.016 75.916 150.344C75.244 149.672 74.908 148.768 74.908 147.632C74.908 146.496 75.244 145.592 75.916 144.92C76.588 144.248 77.444 143.912 78.484 143.912C79.524 143.912 80.38 144.248 81.052 144.92C81.724 145.592 82.06 146.496 82.06 147.632C82.06 148.768 81.724 149.672 81.052 150.344C80.38 151.016 79.524 151.352 78.484 151.352ZM78.484 149.672C78.948 149.672 79.356 149.496 79.708 149.144C80.06 148.776 80.236 148.272 80.236 147.632C80.236 146.976 80.06 146.472 79.708 146.12C79.356 145.768 78.948 145.592 78.484 145.592C78.02 145.592 77.612 145.768 77.26 146.12C76.908 146.472 76.732 146.976 76.732 147.632C76.732 148.272 76.908 148.776 77.26 149.144C77.612 149.496 78.02 149.672 78.484 149.672ZM76.204 159.584L74.884 158.288L87.196 145.616L88.516 146.912L76.204 159.584ZM84.916 161.288C83.876 161.288 83.02 160.952 82.348 160.28C81.676 159.608 81.34 158.704 81.34 157.568C81.34 156.432 81.676 155.528 82.348 154.856C83.02 154.184 83.876 153.848 84.916 153.848C85.956 153.848 86.812 154.184 87.484 154.856C88.156 155.528 88.492 156.432 88.492 157.568C88.492 158.704 88.156 159.608 87.484 160.28C86.812 160.952 85.956 161.288 84.916 161.288ZM84.916 159.608C85.38 159.608 85.788 159.432 86.14 159.08C86.492 158.712 86.668 158.208 86.668 157.568C86.668 156.912 86.492 156.408 86.14 156.056C85.788 155.704 85.38 155.528 84.916 155.528C84.452 155.528 84.044 155.704 83.692 156.056C83.34 156.408 83.164 156.912 83.164 157.568C83.164 158.208 83.34 158.712 83.692 159.08C84.044 159.432 84.452 159.608 84.916 159.608Z" fill="white"/>
</g>
<g filter="url(#filter2_d_362_14841)">
<path d="M122.998 96V93.72H127.15V82.2L123.19 82.92V80.856L128.134 79.2H129.694V93.72H134.158V96H122.998ZM142.981 96.288C141.813 96.288 140.797 96.072 139.933 95.64C139.069 95.208 138.389 94.616 137.893 93.864C137.413 93.112 137.133 92.264 137.053 91.32H139.645C139.805 92.104 140.173 92.736 140.749 93.216C141.341 93.696 142.093 93.936 143.005 93.936C144.077 93.936 144.925 93.6 145.549 92.928C146.173 92.24 146.485 91.36 146.485 90.288C146.485 89.152 146.165 88.272 145.525 87.648C144.885 87.024 144.069 86.712 143.077 86.712C142.277 86.712 141.597 86.896 141.037 87.264C140.477 87.632 140.037 88.096 139.717 88.656H137.269L138.709 79.2H147.853V81.552H140.677L139.861 85.848H140.029C140.365 85.464 140.813 85.144 141.373 84.888C141.949 84.632 142.629 84.504 143.413 84.504C144.565 84.504 145.549 84.752 146.365 85.248C147.197 85.744 147.837 86.432 148.285 87.312C148.733 88.176 148.957 89.16 148.957 90.264C148.957 91.384 148.709 92.4 148.213 93.312C147.733 94.224 147.045 94.952 146.149 95.496C145.253 96.024 144.197 96.288 142.981 96.288ZM154.179 86.352C153.139 86.352 152.283 86.016 151.611 85.344C150.939 84.672 150.603 83.768 150.603 82.632C150.603 81.496 150.939 80.592 151.611 79.92C152.283 79.248 153.139 78.912 154.179 78.912C155.219 78.912 156.075 79.248 156.747 79.92C157.419 80.592 157.755 81.496 157.755 82.632C157.755 83.768 157.419 84.672 156.747 85.344C156.075 86.016 155.219 86.352 154.179 86.352ZM154.179 84.672C154.643 84.672 155.051 84.496 155.403 84.144C155.755 83.776 155.931 83.272 155.931 82.632C155.931 81.976 155.755 81.472 155.403 81.12C155.051 80.768 154.643 80.592 154.179 80.592C153.715 80.592 153.307 80.768 152.955 81.12C152.603 81.472 152.427 81.976 152.427 82.632C152.427 83.272 152.603 83.776 152.955 84.144C153.307 84.496 153.715 84.672 154.179 84.672ZM151.899 94.584L150.579 93.288L162.891 80.616L164.211 81.912L151.899 94.584ZM160.611 96.288C159.571 96.288 158.715 95.952 158.043 95.28C157.371 94.608 157.035 93.704 157.035 92.568C157.035 91.432 157.371 90.528 158.043 89.856C158.715 89.184 159.571 88.848 160.611 88.848C161.651 88.848 162.507 89.184 163.179 89.856C163.851 90.528 164.187 91.432 164.187 92.568C164.187 93.704 163.851 94.608 163.179 95.28C162.507 95.952 161.651 96.288 160.611 96.288ZM160.611 94.608C161.075 94.608 161.483 94.432 161.835 94.08C162.187 93.712 162.363 93.208 162.363 92.568C162.363 91.912 162.187 91.408 161.835 91.056C161.483 90.704 161.075 90.528 160.611 90.528C160.147 90.528 159.739 90.704 159.387 91.056C159.035 91.408 158.859 91.912 158.859 92.568C158.859 93.208 159.035 93.712 159.387 94.08C159.739 94.432 160.147 94.608 160.611 94.608Z" fill="white"/>
</g>
<g filter="url(#filter3_d_362_14841)">
<path d="M286.094 110V107.984C287.742 106.672 289.182 105.464 290.414 104.36C291.662 103.256 292.638 102.192 293.342 101.168C294.046 100.144 294.398 99.104 294.398 98.048C294.398 97.168 294.15 96.48 293.654 95.984C293.158 95.472 292.486 95.216 291.638 95.216C290.662 95.216 289.91 95.528 289.382 96.152C288.854 96.76 288.59 97.488 288.59 98.336H286.118C286.134 97.152 286.382 96.16 286.862 95.36C287.342 94.56 287.99 93.952 288.806 93.536C289.638 93.12 290.582 92.912 291.638 92.912C293.35 92.912 294.67 93.376 295.598 94.304C296.526 95.216 296.99 96.44 296.99 97.976C296.99 98.952 296.774 99.896 296.342 100.808C295.926 101.704 295.374 102.56 294.686 103.376C293.998 104.192 293.23 104.968 292.382 105.704C291.55 106.44 290.71 107.144 289.862 107.816H297.446V110H286.094ZM305.981 110.288C304.813 110.288 303.797 110.072 302.933 109.64C302.069 109.208 301.389 108.616 300.893 107.864C300.413 107.112 300.133 106.264 300.053 105.32H302.645C302.805 106.104 303.173 106.736 303.749 107.216C304.341 107.696 305.093 107.936 306.005 107.936C307.077 107.936 307.925 107.6 308.549 106.928C309.173 106.24 309.485 105.36 309.485 104.288C309.485 103.152 309.165 102.272 308.525 101.648C307.885 101.024 307.069 100.712 306.077 100.712C305.277 100.712 304.597 100.896 304.037 101.264C303.477 101.632 303.037 102.096 302.717 102.656H300.269L301.709 93.2H310.853V95.552H303.677L302.861 99.848H303.029C303.365 99.464 303.813 99.144 304.373 98.888C304.949 98.632 305.629 98.504 306.413 98.504C307.565 98.504 308.549 98.752 309.365 99.248C310.197 99.744 310.837 100.432 311.285 101.312C311.733 102.176 311.957 103.16 311.957 104.264C311.957 105.384 311.709 106.4 311.213 107.312C310.733 108.224 310.045 108.952 309.149 109.496C308.253 110.024 307.197 110.288 305.981 110.288ZM317.179 100.352C316.139 100.352 315.283 100.016 314.611 99.344C313.939 98.672 313.603 97.768 313.603 96.632C313.603 95.496 313.939 94.592 314.611 93.92C315.283 93.248 316.139 92.912 317.179 92.912C318.219 92.912 319.075 93.248 319.747 93.92C320.419 94.592 320.755 95.496 320.755 96.632C320.755 97.768 320.419 98.672 319.747 99.344C319.075 100.016 318.219 100.352 317.179 100.352ZM317.179 98.672C317.643 98.672 318.051 98.496 318.403 98.144C318.755 97.776 318.931 97.272 318.931 96.632C318.931 95.976 318.755 95.472 318.403 95.12C318.051 94.768 317.643 94.592 317.179 94.592C316.715 94.592 316.307 94.768 315.955 95.12C315.603 95.472 315.427 95.976 315.427 96.632C315.427 97.272 315.603 97.776 315.955 98.144C316.307 98.496 316.715 98.672 317.179 98.672ZM314.899 108.584L313.579 107.288L325.891 94.616L327.211 95.912L314.899 108.584ZM323.611 110.288C322.571 110.288 321.715 109.952 321.043 109.28C320.371 108.608 320.035 107.704 320.035 106.568C320.035 105.432 320.371 104.528 321.043 103.856C321.715 103.184 322.571 102.848 323.611 102.848C324.651 102.848 325.507 103.184 326.179 103.856C326.851 104.528 327.187 105.432 327.187 106.568C327.187 107.704 326.851 108.608 326.179 109.28C325.507 109.952 324.651 110.288 323.611 110.288ZM323.611 108.608C324.075 108.608 324.483 108.432 324.835 108.08C325.187 107.712 325.363 107.208 325.363 106.568C325.363 105.912 325.187 105.408 324.835 105.056C324.483 104.704 324.075 104.528 323.611 104.528C323.147 104.528 322.739 104.704 322.387 105.056C322.035 105.408 321.859 105.912 321.859 106.568C321.859 107.208 322.035 107.712 322.387 108.08C322.739 108.432 323.147 108.608 323.611 108.608Z" fill="white"/>
</g>
<g filter="url(#filter4_d_362_14841)">
<path d="M295.094 309V306.984C296.742 305.672 298.182 304.464 299.414 303.36C300.662 302.256 301.638 301.192 302.342 300.168C303.046 299.144 303.398 298.104 303.398 297.048C303.398 296.168 303.15 295.48 302.654 294.984C302.158 294.472 301.486 294.216 300.638 294.216C299.662 294.216 298.91 294.528 298.382 295.152C297.854 295.76 297.59 296.488 297.59 297.336H295.118C295.134 296.152 295.382 295.16 295.862 294.36C296.342 293.56 296.99 292.952 297.806 292.536C298.638 292.12 299.582 291.912 300.638 291.912C302.35 291.912 303.67 292.376 304.598 293.304C305.526 294.216 305.99 295.44 305.99 296.976C305.99 297.952 305.774 298.896 305.342 299.808C304.926 300.704 304.374 301.56 303.686 302.376C302.998 303.192 302.23 303.968 301.382 304.704C300.55 305.44 299.71 306.144 298.862 306.816H306.446V309H295.094ZM314.981 309.288C313.813 309.288 312.797 309.072 311.933 308.64C311.069 308.208 310.389 307.616 309.893 306.864C309.413 306.112 309.133 305.264 309.053 304.32H311.645C311.805 305.104 312.173 305.736 312.749 306.216C313.341 306.696 314.093 306.936 315.005 306.936C316.077 306.936 316.925 306.6 317.549 305.928C318.173 305.24 318.485 304.36 318.485 303.288C318.485 302.152 318.165 301.272 317.525 300.648C316.885 300.024 316.069 299.712 315.077 299.712C314.277 299.712 313.597 299.896 313.037 300.264C312.477 300.632 312.037 301.096 311.717 301.656H309.269L310.709 292.2H319.853V294.552H312.677L311.861 298.848H312.029C312.365 298.464 312.813 298.144 313.373 297.888C313.949 297.632 314.629 297.504 315.413 297.504C316.565 297.504 317.549 297.752 318.365 298.248C319.197 298.744 319.837 299.432 320.285 300.312C320.733 301.176 320.957 302.16 320.957 303.264C320.957 304.384 320.709 305.4 320.213 306.312C319.733 307.224 319.045 307.952 318.149 308.496C317.253 309.024 316.197 309.288 314.981 309.288ZM326.179 299.352C325.139 299.352 324.283 299.016 323.611 298.344C322.939 297.672 322.603 296.768 322.603 295.632C322.603 294.496 322.939 293.592 323.611 292.92C324.283 292.248 325.139 291.912 326.179 291.912C327.219 291.912 328.075 292.248 328.747 292.92C329.419 293.592 329.755 294.496 329.755 295.632C329.755 296.768 329.419 297.672 328.747 298.344C328.075 299.016 327.219 299.352 326.179 299.352ZM326.179 297.672C326.643 297.672 327.051 297.496 327.403 297.144C327.755 296.776 327.931 296.272 327.931 295.632C327.931 294.976 327.755 294.472 327.403 294.12C327.051 293.768 326.643 293.592 326.179 293.592C325.715 293.592 325.307 293.768 324.955 294.12C324.603 294.472 324.427 294.976 324.427 295.632C324.427 296.272 324.603 296.776 324.955 297.144C325.307 297.496 325.715 297.672 326.179 297.672ZM323.899 307.584L322.579 306.288L334.891 293.616L336.211 294.912L323.899 307.584ZM332.611 309.288C331.571 309.288 330.715 308.952 330.043 308.28C329.371 307.608 329.035 306.704 329.035 305.568C329.035 304.432 329.371 303.528 330.043 302.856C330.715 302.184 331.571 301.848 332.611 301.848C333.651 301.848 334.507 302.184 335.179 302.856C335.851 303.528 336.187 304.432 336.187 305.568C336.187 306.704 335.851 307.608 335.179 308.28C334.507 308.952 333.651 309.288 332.611 309.288ZM332.611 307.608C333.075 307.608 333.483 307.432 333.835 307.08C334.187 306.712 334.363 306.208 334.363 305.568C334.363 304.912 334.187 304.408 333.835 304.056C333.483 303.704 333.075 303.528 332.611 303.528C332.147 303.528 331.739 303.704 331.387 304.056C331.035 304.408 330.859 304.912 330.859 305.568C330.859 306.208 331.035 306.712 331.387 307.08C331.739 307.432 332.147 307.608 332.611 307.608Z" fill="white"/>
</g>
<defs>
<filter id="filter0_d_362_14841" x="84.7341" y="288.912" width="45.4772" height="21.376" filterUnits="userSpaceOnUse" color-interpolation-filters="sRGB">
<feFlood flood-opacity="0" result="BackgroundImageFix"/>
<feColorMatrix in="SourceAlpha" type="matrix" values="0 0 0 0 0 0 0 0 0 0 0 0 0 0 0 0 0 0 127 0" result="hardAlpha"/>
<feOffset dx="4" dy="4"/>
<feComposite in2="hardAlpha" operator="out"/>
<feColorMatrix type="matrix" values="0 0 0 0 0 0 0 0 0 0 0 0 0 0 0 0 0 0 0.25 0"/>
<feBlend mode="normal" in2="BackgroundImageFix" result="effect1_dropShadow_362_14841"/>
<feBlend mode="normal" in="SourceGraphic" in2="effect1_dropShadow_362_14841" result="shape"/>
</filter>
<filter id="filter1_d_362_14841" x="61.3574" y="143.912" width="31.1586" height="21.376" filterUnits="userSpaceOnUse" color-interpolation-filters="sRGB">
<feFlood flood-opacity="0" result="BackgroundImageFix"/>
<feColorMatrix in="SourceAlpha" type="matrix" values="0 0 0 0 0 0 0 0 0 0 0 0 0 0 0 0 0 0 127 0" result="hardAlpha"/>
<feOffset dx="4" dy="4"/>
<feComposite in2="hardAlpha" operator="out"/>
<feColorMatrix type="matrix" values="0 0 0 0 0 0 0 0 0 0 0 0 0 0 0 0 0 0 0.25 0"/>
<feBlend mode="normal" in2="BackgroundImageFix" result="effect1_dropShadow_362_14841"/>
<feBlend mode="normal" in="SourceGraphic" in2="effect1_dropShadow_362_14841" result="shape"/>
</filter>
<filter id="filter2_d_362_14841" x="122.998" y="78.9121" width="45.2132" height="21.376" filterUnits="userSpaceOnUse" color-interpolation-filters="sRGB">
<feFlood flood-opacity="0" result="BackgroundImageFix"/>
<feColorMatrix in="SourceAlpha" type="matrix" values="0 0 0 0 0 0 0 0 0 0 0 0 0 0 0 0 0 0 127 0" result="hardAlpha"/>
<feOffset dx="4" dy="4"/>
<feComposite in2="hardAlpha" operator="out"/>
<feColorMatrix type="matrix" values="0 0 0 0 0 0 0 0 0 0 0 0 0 0 0 0 0 0 0.25 0"/>
<feBlend mode="normal" in2="BackgroundImageFix" result="effect1_dropShadow_362_14841"/>
<feBlend mode="normal" in="SourceGraphic" in2="effect1_dropShadow_362_14841" result="shape"/>
</filter>
<filter id="filter3_d_362_14841" x="286.094" y="92.9121" width="45.1173" height="21.376" filterUnits="userSpaceOnUse" color-interpolation-filters="sRGB">
<feFlood flood-opacity="0" result="BackgroundImageFix"/>
<feColorMatrix in="SourceAlpha" type="matrix" values="0 0 0 0 0 0 0 0 0 0 0 0 0 0 0 0 0 0 127 0" result="hardAlpha"/>
<feOffset dx="4" dy="4"/>
<feComposite in2="hardAlpha" operator="out"/>
<feColorMatrix type="matrix" values="0 0 0 0 0 0 0 0 0 0 0 0 0 0 0 0 0 0 0.25 0"/>
<feBlend mode="normal" in2="BackgroundImageFix" result="effect1_dropShadow_362_14841"/>
<feBlend mode="normal" in="SourceGraphic" in2="effect1_dropShadow_362_14841" result="shape"/>
</filter>
<filter id="filter4_d_362_14841" x="295.094" y="291.912" width="45.1173" height="21.376" filterUnits="userSpaceOnUse" color-interpolation-filters="sRGB">
<feFlood flood-opacity="0" result="BackgroundImageFix"/>
<feColorMatrix in="SourceAlpha" type="matrix" values="0 0 0 0 0 0 0 0 0 0 0 0 0 0 0 0 0 0 127 0" result="hardAlpha"/>
<feOffset dx="4" dy="4"/>
<feComposite in2="hardAlpha" operator="out"/>
<feColorMatrix type="matrix" values="0 0 0 0 0 0 0 0 0 0 0 0 0 0 0 0 0 0 0.25 0"/>
<feBlend mode="normal" in2="BackgroundImageFix" result="effect1_dropShadow_362_14841"/>
<feBlend mode="normal" in="SourceGraphic" in2="effect1_dropShadow_362_14841" result="shape"/>
</filter>
</defs>
</svg>
