<svg width="89" height="20" viewBox="0 0 89 20" fill="none" xmlns="http://www.w3.org/2000/svg">
<g clip-path="url(#clip0_4403_11085)">
<mask id="mask0_4403_11085" style="mask-type:luminance" maskUnits="userSpaceOnUse" x="0" y="0" width="89" height="20">
<path d="M0.831879 0H88.1681V20H0.831879V0Z" fill="white"/>
</mask>
<g mask="url(#mask0_4403_11085)">
<path fill-rule="evenodd" clip-rule="evenodd" d="M73.1352 5.94354H75.6155V3.46265H73.1352V5.94354ZM59.9518 10.0751C60.4258 8.81801 61.6394 7.92299 63.0625 7.92299C64.4854 7.92299 65.699 8.81801 66.1732 10.0751H59.9518ZM63.0625 5.61637C59.9535 5.61637 57.4323 8.13772 57.4323 11.2481C57.4323 14.3584 59.9535 16.8794 63.0625 16.8794C65.196 16.8794 67.052 15.6929 68.0074 13.9439L65.9269 12.9344C65.3489 13.9147 64.2827 14.5727 63.0625 14.5727C61.5207 14.5727 60.2248 13.523 59.8487 12.0991H66.276C66.2756 12.1001 66.2754 12.1016 66.2752 12.1028H68.6292C68.6717 11.824 68.6937 11.5385 68.6937 11.2481C68.6937 8.13772 66.1725 5.61637 63.0625 5.61637ZM69.3475 16.5792H71.8278V14.0983H69.3475V16.5792ZM73.1352 16.5792H75.6155V7.0342H73.1352V16.5792ZM82.5384 14.5727C80.7025 14.5727 79.2142 13.0842 79.2142 11.2481C79.2142 9.41157 80.7025 7.92299 82.5384 7.92299C84.3742 7.92299 85.8625 9.41157 85.8625 11.2481C85.8625 13.0842 84.3742 14.5727 82.5384 14.5727ZM82.5373 5.61637C79.4283 5.61637 76.9071 8.13772 76.9071 11.2481C76.9071 14.3584 79.4283 16.8794 82.5373 16.8794C85.6474 16.8794 88.1685 14.3584 88.1685 11.2481C88.1685 8.13772 85.6474 5.61637 82.5373 5.61637ZM30.6797 9.17215V11.7373H34.1478C33.9667 12.4703 33.6087 13.1271 33.0953 13.6518C32.321 14.4433 31.2474 14.8794 30.072 14.8794C27.6329 14.8794 25.6484 12.8945 25.6484 10.4547C25.6484 8.0149 27.6329 6.02985 30.072 6.02985C31.3785 6.02985 32.5795 6.58918 33.4121 7.55391L35.3977 5.9311C34.0812 4.38795 32.1279 3.46451 30.072 3.46451C26.2188 3.46451 23.0838 6.60039 23.0838 10.4547C23.0838 14.3091 26.2188 17.4447 30.072 17.4447C31.9429 17.4447 33.6676 16.7704 34.9285 15.4817C35.9866 14.3999 36.6878 12.891 36.8227 11.3794C36.8884 10.6421 36.8944 9.9097 36.8556 9.17215H30.6797ZM43.3132 14.5734C41.4774 14.5734 39.9889 13.0844 39.9889 11.2481C39.9889 9.41136 41.4774 7.92278 43.3132 7.92278C45.1493 7.92278 46.6378 9.41136 46.6378 11.2481C46.6378 13.0844 45.1493 14.5734 43.3132 14.5734ZM46.6382 6.71387C45.7062 6.03047 44.5571 5.62591 43.3132 5.62591C40.2042 5.62591 37.6839 8.14706 37.6839 11.2568C37.6839 14.3669 40.2042 16.8877 43.3132 16.8877C44.5571 16.8877 45.7062 16.4833 46.6382 15.7999V16.5792H48.9428V5.93462H46.6382V6.71387ZM53.8902 3.46285H51.5853V5.94354H50.2039V8.11926H51.5853V13.813C51.5853 14.401 51.6592 14.8956 51.8056 15.2837C51.95 15.6678 52.1707 15.9684 52.4331 16.2032C52.699 16.4416 53.0109 16.6273 53.3808 16.7327C53.7566 16.8385 54.1712 16.8794 54.6095 16.8794C55.0631 16.8794 55.4676 16.8323 55.8128 16.7391C56.1332 16.653 56.4404 16.5312 56.7262 16.3765V14.6234C56.2716 14.82 55.8466 14.8912 55.3616 14.9138C54.8497 14.9379 54.5469 14.7916 54.2949 14.5514C54.0308 14.2997 53.8902 13.9717 53.8902 13.4215V8.11926H56.7262V5.94354H53.8902V3.46285Z" fill="#FEFEFE"/>
</g>
<mask id="mask1_4403_11085" style="mask-type:luminance" maskUnits="userSpaceOnUse" x="0" y="0" width="89" height="20">
<path d="M0.831879 0H88.1681V20H0.831879V0Z" fill="white"/>
</mask>
<g mask="url(#mask1_4403_11085)">
<path fill-rule="evenodd" clip-rule="evenodd" d="M10.8301 15.5001C7.79325 15.5001 5.33139 13.0379 5.33139 10.0001C5.33139 6.96261 7.79325 4.49997 10.8301 4.49997V0C5.30837 0 0.832253 4.47715 0.832253 10.0001C0.832253 15.5229 5.30837 20.0001 10.8301 20.0001C16.3516 20.0001 20.8279 15.5229 20.8279 10.0001H16.3288C16.3288 13.0379 13.8669 15.5001 10.8301 15.5001Z" fill="#2354E6"/>
</g>
<mask id="mask2_4403_11085" style="mask-type:luminance" maskUnits="userSpaceOnUse" x="0" y="0" width="89" height="20">
<path d="M0.831879 0H88.1681V20H0.831879V0Z" fill="white"/>
</mask>
<g mask="url(#mask2_4403_11085)">
<path fill-rule="evenodd" clip-rule="evenodd" d="M10.8299 9.99997H16.3286V4.5H10.8299V9.99997Z" fill="#17E6A1"/>
</g>
</g>
<defs>
<clipPath id="clip0_4403_11085">
<rect width="87.3362" height="20" fill="white" transform="translate(0.831879)"/>
</clipPath>
</defs>
</svg>
